<svg xmlns="http://www.w3.org/2000/svg" viewBox="450 175 1220 340" role="img" aria-label="Financiado pela União Europeia NextGenerationEU">
  <g>
    <rect x="478" y="205" width="462" height="280" fill="#003399"/>
    <polygon points="709.00,229.00 713.23,241.18 726.12,241.44 715.85,249.22 719.58,261.56 709.00,254.20 698.42,261.56 702.15,249.22 691.88,241.44 704.77,241.18" fill="#ffcc00"/><polygon points="758.00,242.13 762.23,254.30 775.12,254.57 764.85,262.35 768.58,274.69 758.00,267.33 747.42,274.69 751.15,262.35 740.88,254.57 753.77,254.30" fill="#ffcc00"/><polygon points="793.87,278.00 798.10,290.18 810.99,290.44 800.72,298.22 804.45,310.56 793.87,303.20 783.29,310.56 787.02,298.22 776.75,290.44 789.64,290.18" fill="#ffcc00"/><polygon points="807.00,327.00 811.23,339.18 824.12,339.44 813.85,347.22 817.58,359.56 807.00,352.20 796.42,359.56 800.15,347.22 789.88,339.44 802.77,339.18" fill="#ffcc00"/><polygon points="793.87,376.00 798.10,388.18 810.99,388.44 800.72,396.22 804.45,408.56 793.87,401.20 783.29,408.56 787.02,396.22 776.75,388.44 789.64,388.18" fill="#ffcc00"/><polygon points="758.00,411.87 762.23,424.05 775.12,424.31 764.85,432.10 768.58,444.43 758.00,437.07 747.42,444.43 751.15,432.10 740.88,424.31 753.77,424.05" fill="#ffcc00"/><polygon points="709.00,425.00 713.23,437.18 726.12,437.44 715.85,445.22 719.58,457.56 709.00,450.20 698.42,457.56 702.15,445.22 691.88,437.44 704.77,437.18" fill="#ffcc00"/><polygon points="660.00,411.87 664.23,424.05 677.12,424.31 666.85,432.10 670.58,444.43 660.00,437.07 649.42,444.43 653.15,432.10 642.88,424.31 655.77,424.05" fill="#ffcc00"/><polygon points="624.13,376.00 628.36,388.18 641.25,388.44 630.98,396.22 634.71,408.56 624.13,401.20 613.55,408.56 617.28,396.22 607.01,388.44 619.90,388.18" fill="#ffcc00"/><polygon points="611.00,327.00 615.23,339.18 628.12,339.44 617.85,347.22 621.58,359.56 611.00,352.20 600.42,359.56 604.15,347.22 593.88,339.44 606.77,339.18" fill="#ffcc00"/><polygon points="624.13,278.00 628.36,290.18 641.25,290.44 630.98,298.22 634.71,310.56 624.13,303.20 613.55,310.56 617.28,298.22 607.01,290.44 619.90,290.18" fill="#ffcc00"/><polygon points="660.00,242.13 664.23,254.30 677.12,254.57 666.85,262.35 670.58,274.69 660.00,267.33 649.42,274.69 653.15,262.35 642.88,254.57 655.77,254.30" fill="#ffcc00"/>
    <text x="990" y="282" font-family="Arial, Helvetica, sans-serif" font-size="69" font-weight="800" fill="#ffffff">Financiado pela</text>
    <text x="990" y="370" font-family="Arial, Helvetica, sans-serif" font-size="69" font-weight="800" fill="#ffffff">União Europeia</text>
    <text x="990" y="480" font-family="Arial, Helvetica, sans-serif" font-size="59" font-weight="700" fill="#ffffff">NextGenerationEU</text>
  </g>
</svg>